<?xml version="1.0" encoding="UTF-8" standalone="no"?>
<!DOCTYPE svg PUBLIC "-//W3C//DTD SVG 1.1//EN" "http://www.w3.org/Graphics/SVG/1.1/DTD/svg11.dtd">
<svg width="100%" height="100%" viewBox="0 0 26 26" version="1.1" xmlns="http://www.w3.org/2000/svg" xmlns:xlink="http://www.w3.org/1999/xlink" xml:space="preserve" xmlns:serif="http://www.serif.com/" style="fill-rule:evenodd;clip-rule:evenodd;stroke-linecap:round;stroke-linejoin:round;">
    <g transform="matrix(0.370371,0,0,0.37037,-1.85186,-1.85185)">
        <path d="M48.757,27.942L46.57,28.851C45.966,29.099 45.276,28.815 45.026,28.212L44.123,26.031C43.875,25.429 44.16,24.737 44.762,24.489L46.948,23.584C46.65,22.089 46.642,20.51 46.941,18.962L44.492,17.947C43.88,17.695 43.587,16.991 43.842,16.377L44.763,14.154C45.017,13.54 45.72,13.249 46.333,13.504L48.782,14.517C49.666,13.205 50.783,12.105 52.055,11.254L51.15,9.069C50.901,8.467 51.186,7.776 51.787,7.526L53.97,6.624C54.571,6.375 55.261,6.66 55.511,7.262L56.416,9.447C57.917,9.147 59.485,9.135 61.04,9.439L62.051,6.994C62.306,6.379 63.01,6.087 63.622,6.342L65.846,7.262C66.46,7.517 66.751,8.22 66.496,8.834L65.485,11.279C66.797,12.162 67.895,13.284 68.745,14.555L70.93,13.649C71.533,13.4 72.223,13.685 72.473,14.287L73.376,16.469C73.625,17.071 73.341,17.761 72.737,18.011L70.551,18.916C70.847,20.411 70.857,21.99 70.558,23.537L73.007,24.552C73.62,24.806 73.913,25.509 73.657,26.122L72.736,28.346C72.482,28.961 71.78,29.251 71.166,28.996L68.717,27.982C67.833,29.295 66.717,30.396 65.446,31.246L66.35,33.431C66.6,34.034 66.313,34.722 65.712,34.972L63.53,35.876C62.93,36.126 62.238,35.84 61.988,35.237L61.082,33.05C59.59,33.349 58.012,33.356 56.465,33.055L55.448,35.506C55.195,36.121 54.491,36.412 53.877,36.159L51.655,35.237C51.04,34.982 50.75,34.28 51.003,33.666L52.018,31.215C50.705,30.331 49.605,29.215 48.757,27.942Z" style="fill:none;stroke:rgb(86,171,95);stroke-width:2.5px;"/>
    </g>
    <g transform="matrix(0.370371,0,0,0.37037,-1.85186,-1.85185)">
        <path d="M17.325,67.744C16.626,68.444 15.491,68.444 14.79,67.744L12.256,65.21C11.555,64.508 11.555,63.374 12.256,62.674L14.798,60.133C13.511,58.208 12.581,56.095 12.102,53.75L8.076,53.75C7.067,53.75 6.25,52.838 6.25,51.826L6.25,48.173C6.25,47.163 7.067,46.25 8.076,46.25L12.102,46.25C12.58,43.895 13.506,41.798 14.796,39.866L12.256,37.325C11.555,36.626 11.555,35.49 12.256,34.79L14.79,32.255C15.491,31.555 16.625,31.555 17.324,32.255L19.866,34.795C21.797,33.504 23.894,32.574 26.25,32.095L26.25,28.076C26.25,27.066 27.164,26.25 28.174,26.25L31.826,26.25C32.836,26.25 33.75,27.066 33.75,28.076L33.75,32.095C36.106,32.574 38.201,33.508 40.134,34.795L42.675,32.255C43.374,31.555 44.509,31.555 45.21,32.255L47.744,34.79C48.445,35.491 48.445,36.625 47.744,37.325L45.202,39.866C46.486,41.791 47.419,43.906 47.897,46.25L51.924,46.25C52.932,46.25 53.75,47.163 53.75,48.173L53.75,51.826C53.75,52.838 52.932,53.75 51.924,53.75L47.897,53.75C47.42,56.105 46.496,58.204 45.205,60.133L47.744,62.674C48.445,63.374 48.445,64.507 47.744,65.207L45.21,67.744C44.509,68.444 43.374,68.444 42.675,67.744L40.131,65.2C38.207,66.486 36.096,67.413 33.75,67.894L33.75,71.922C33.75,72.932 32.836,73.75 31.826,73.75L28.174,73.75C27.164,73.75 26.25,72.932 26.25,71.922L26.25,67.894C23.894,67.416 21.799,66.49 19.869,65.2L17.325,67.744Z" style="fill:rgb(111,146,95);fill-opacity:0.2;stroke:rgb(86,171,95);stroke-width:2.5px;"/>
    </g>
    <g transform="matrix(0.370371,0,0,0.37037,-1.85186,-1.85185)">
        <path d="M38.75,50C38.75,54.832 34.833,58.75 30,58.75C25.167,58.75 21.25,54.833 21.25,50C21.25,45.166 25.168,41.25 30,41.25C34.832,41.25 38.75,45.166 38.75,50Z" style="fill:white;stroke:rgb(86,171,95);stroke-width:2.5px;"/>
    </g>
    <g transform="matrix(0.370371,0,0,0.37037,-1.85186,-1.85185)">
        <path d="M63.75,21.25C63.75,24.011 61.511,26.25 58.75,26.25C55.989,26.25 53.75,24.011 53.75,21.25C53.75,18.489 55.989,16.25 58.75,16.25C61.511,16.25 63.75,18.489 63.75,21.25Z" style="fill:none;stroke:rgb(86,171,95);stroke-width:2.5px;"/>
    </g>
</svg>
