<?xml version="1.0" encoding="UTF-8" standalone="no"?>
<!DOCTYPE svg PUBLIC "-//W3C//DTD SVG 1.1//EN" "http://www.w3.org/Graphics/SVG/1.1/DTD/svg11.dtd">
<svg width="100%" height="100%" viewBox="0 0 26 26" version="1.1" xmlns="http://www.w3.org/2000/svg" xmlns:xlink="http://www.w3.org/1999/xlink" xml:space="preserve" xmlns:serif="http://www.serif.com/" style="fill-rule:evenodd;clip-rule:evenodd;stroke-linecap:round;stroke-linejoin:round;">
    <g transform="matrix(0.384615,0,0,0.384615,-1.92308,-2.88462)">
        <path d="M38.75,8.75C20.801,8.75 6.25,23.301 6.25,41.25C6.25,59.199 20.801,73.75 38.75,73.75C56.699,73.75 71.25,59.199 71.25,41.25C71.25,23.301 56.699,8.75 38.75,8.75Z" style="fill:rgb(235,235,235);stroke:rgb(86,171,95);stroke-width:2.5px;"/>
    </g>
    <g transform="matrix(0.384615,0,0,0.384615,-1.92308,-2.88462)">
        <path d="M61.25,41.25C61.25,53.676 51.176,63.75 38.75,63.75C26.324,63.75 16.25,53.676 16.25,41.25C16.25,28.824 26.324,18.75 38.75,18.75C51.176,18.75 61.25,28.824 61.25,41.25Z" style="fill:rgb(57,171,0);fill-opacity:0.2;stroke:rgb(86,171,95);stroke-width:2.5px;"/>
    </g>
    <g transform="matrix(0.384615,0,0,0.384615,-1.92308,-2.88462)">
        <path d="M51.25,41.25C51.25,48.154 45.654,53.75 38.75,53.75C31.846,53.75 26.25,48.154 26.25,41.25C26.25,34.346 31.846,28.75 38.75,28.75C45.654,28.75 51.25,34.346 51.25,41.25Z" style="fill:rgb(235,235,235);stroke:rgb(86,171,95);stroke-width:2.5px;"/>
    </g>
    <g transform="matrix(0.384615,0,0,0.384615,-1.92308,-2.88462)">
        <path d="M38.75,43.75C37.37,43.75 36.25,42.63 36.25,41.25C36.25,39.87 37.37,38.75 38.75,38.75C40.13,38.75 41.25,39.87 41.25,41.25C41.25,42.63 40.13,43.75 38.75,43.75Z" style="fill:white;stroke:rgb(86,171,95);stroke-width:2.5px;"/>
    </g>
</svg>
