<?xml version="1.0" encoding="UTF-8" standalone="no"?>
<!DOCTYPE svg PUBLIC "-//W3C//DTD SVG 1.1//EN" "http://www.w3.org/Graphics/SVG/1.1/DTD/svg11.dtd">
<svg width="100%" height="100%" viewBox="0 0 294 60" version="1.1" xmlns="http://www.w3.org/2000/svg" xmlns:xlink="http://www.w3.org/1999/xlink" xml:space="preserve" xmlns:serif="http://www.serif.com/" style="fill-rule:evenodd;clip-rule:evenodd;stroke-linejoin:round;stroke-miterlimit:2;">
    <g id="Layer-2" serif:id="Layer 2" transform="matrix(1,0,0,1,-131.4,-254.25)">
        <g transform="matrix(1,0,0,1,176.35,306.417)">
            <path d="M0,-24.717C0.3,-24.384 0.417,-24.033 0.35,-23.667C0.017,-21.134 0.217,-18.301 0.95,-15.167C1.05,-14.7 1.2,-14.234 1.4,-13.767C4.5,-11.167 8.35,-10.051 12.95,-10.417C13.417,-10.417 13.867,-10.267 14.3,-9.967C14.667,-9.634 14.85,-9.267 14.85,-8.867C14.85,-8.401 14.7,-8.033 14.4,-7.767C14.1,-7.434 13.683,-7.234 13.15,-7.167C10.15,-7 7.417,-7.301 4.95,-8.068C6.45,-6.267 8.4,-4.601 10.8,-3.068C11.267,-2.767 11.533,-2.434 11.6,-2.068C11.767,-1.667 11.667,-1.267 11.3,-0.867C10.9,-0.533 10.483,-0.318 10.05,-0.217C9.55,-0.217 9.117,-0.318 8.75,-0.517C4.95,-2.917 2.117,-5.617 0.25,-8.617C-0.383,-9.584 -1.067,-10.667 -1.8,-11.867L-1.8,-12.417C-2.2,-13.084 -2.434,-13.767 -2.5,-14.467C-3.4,-18.068 -3.617,-21.2 -3.15,-23.867C-3.083,-24.301 -2.867,-24.634 -2.5,-24.867C-2.1,-25.234 -1.667,-25.367 -1.2,-25.267C-0.7,-25.167 -0.3,-24.984 0,-24.717M-8.2,-20.017C-7.733,-20.017 -7.333,-19.834 -7,-19.467C-6.6,-19.301 -6.4,-18.934 -6.4,-18.367L-6.4,-16.867C-6.4,-16.033 -6.417,-15.117 -6.45,-14.117L-6.45,-11.867C-6.317,-11.101 -6.184,-10.417 -6.05,-9.818L-6.05,-9.318C-5.217,-4.617 -2.283,-1.033 2.75,1.432C3.217,1.633 3.5,1.932 3.6,2.333C3.767,2.766 3.683,3.217 3.35,3.682C3.15,3.883 2.816,4.099 2.35,4.333C1.85,4.432 1.417,4.383 1.05,4.182C-2.017,2.616 -4.45,0.766 -6.25,-1.367C-6.35,-0.834 -6.517,-0.334 -6.75,0.133C-6.883,0.5 -7.133,0.833 -7.5,1.133C-7.967,1.3 -8.434,1.333 -8.9,1.233C-9.4,1.166 -9.767,0.932 -10,0.533C-10.233,0.133 -10.283,-0.25 -10.15,-0.617C-9.317,-3.084 -9.167,-5.834 -9.7,-8.867L-9.65,-9.068L-9.65,-9.318C-9.783,-10.051 -9.95,-10.734 -10.15,-11.367L-10.15,-11.467C-10.217,-12.401 -10.25,-13.283 -10.25,-14.117C-10.184,-15.117 -10.15,-16.033 -10.15,-16.867L-10.15,-18.367C-10.15,-18.934 -9.95,-19.301 -9.55,-19.467C-9.117,-19.834 -8.667,-20.017 -8.2,-20.017M-43,-9.467C-40.1,-9.367 -37.583,-10 -35.45,-11.367L-35.45,-11.467C-34.283,-12.068 -33.217,-12.801 -32.25,-13.667C-31.483,-14.568 -31.05,-15.634 -30.95,-16.867L-30.95,-17.517C-30.85,-20.917 -30.8,-22.801 -30.8,-23.167L-30.8,-23.818C-30.8,-24.283 -30.55,-24.634 -30.05,-24.867C-29.717,-25.234 -29.317,-25.367 -28.85,-25.267C-28.35,-25.234 -27.934,-25.101 -27.6,-24.867C-27.233,-24.5 -27.05,-24.101 -27.05,-23.667L-27.05,-23.068C-27.05,-22.734 -27.15,-20.884 -27.35,-17.517L-27.35,-16.867C-27.583,-14.967 -28.184,-13.301 -29.15,-11.867C-29.617,-11.033 -30.167,-10.184 -30.8,-9.318L-30.95,-9.318C-31.317,-8.917 -31.684,-8.5 -32.05,-8.068C-32.25,-7.967 -32.383,-7.867 -32.45,-7.767C-32.55,-7.7 -32.6,-7.617 -32.6,-7.517L-32.7,-7.417C-32.934,-7.318 -33.117,-7.217 -33.25,-7.117C-35.917,-4.851 -37.583,-2.467 -38.25,0.033C-38.283,0.467 -38.483,0.8 -38.85,1.033C-39.283,1.266 -39.75,1.366 -40.25,1.333C-40.783,1.199 -41.15,0.983 -41.35,0.682C-41.617,0.25 -41.75,-0.151 -41.75,-0.517C-41.217,-2.818 -40.117,-4.917 -38.45,-6.818C-39.917,-6.517 -41.533,-6.384 -43.3,-6.417C-43.833,-6.484 -44.317,-6.684 -44.75,-7.017C-44.883,-7.283 -44.95,-7.634 -44.95,-8.068C-44.95,-8.5 -44.783,-8.884 -44.45,-9.217C-43.95,-9.384 -43.467,-9.467 -43,-9.467M-16.45,-24.867C-15.95,-25.134 -15.483,-25.267 -15.05,-25.267C-14.55,-25.267 -14.117,-25.134 -13.75,-24.867C-13.417,-24.568 -13.25,-24.2 -13.25,-23.767L-13.35,-18.367C-13.35,-18.234 -13.317,-18.033 -13.25,-17.767L-13.25,-16.867C-13.317,-14.334 -13.6,-11.217 -14.1,-7.517C-14.934,-2.184 -13.35,1.816 -9.35,4.483C-9.05,4.783 -8.817,5.133 -8.65,5.533C-8.65,5.967 -8.75,6.349 -8.95,6.682C-9.283,7.05 -9.684,7.233 -10.15,7.233C-10.684,7.3 -11.133,7.217 -11.5,6.983C-16.667,3.649 -18.8,-1.318 -17.9,-7.917C-17.233,-11.517 -16.883,-14.5 -16.85,-16.867L-16.85,-17.517C-16.85,-17.917 -16.867,-18.2 -16.9,-18.367L-16.85,-23.767C-16.85,-24.2 -16.717,-24.568 -16.45,-24.867M-21.85,-20.017C-21.35,-20.017 -20.934,-19.834 -20.6,-19.467C-20.367,-19.301 -20.25,-18.934 -20.25,-18.367L-20.25,-16.867C-20.25,-16.068 -20.3,-15.234 -20.4,-14.367C-20.467,-10.834 -21.3,-7.667 -22.9,-4.867C-23.5,-2 -22.867,0.849 -21,3.682C-20.8,4.05 -20.733,4.467 -20.8,4.932C-20.934,5.333 -21.283,5.616 -21.85,5.783C-22.117,6.05 -22.517,6.149 -23.05,6.083C-23.55,5.883 -23.9,5.599 -24.1,5.233C-25.2,3.566 -25.983,1.916 -26.45,0.283C-28.05,1.916 -29.9,3.233 -32,4.233C-32.367,4.432 -32.8,4.483 -33.3,4.383C-33.767,4.283 -34.1,4.05 -34.3,3.682C-34.567,3.316 -34.667,2.932 -34.6,2.533C-34.4,2.066 -34.083,1.733 -33.65,1.533C-30.65,0 -28.25,-2.367 -26.45,-5.568C-26.383,-5.7 -26.333,-5.818 -26.3,-5.917L-26.15,-6.017C-24.717,-8.551 -23.983,-11.334 -23.95,-14.367C-23.85,-15.234 -23.8,-16.068 -23.8,-16.867L-23.8,-18.367C-23.8,-18.934 -23.583,-19.301 -23.15,-19.467C-22.783,-19.834 -22.35,-20.017 -21.85,-20.017M223.3,-22.867C223.233,-23.601 223.1,-24.151 222.9,-24.517C222.633,-25.351 222.216,-26.033 221.65,-26.568C221.183,-27.2 220.567,-27.634 219.8,-27.867C219.2,-28.167 218.583,-28.318 217.95,-28.318L217.65,-28.318C216.95,-28.318 216.317,-28.167 215.75,-27.867C215.016,-27.634 214.4,-27.2 213.9,-26.568C213.433,-26.033 213,-25.351 212.6,-24.517C212.4,-23.884 212.216,-23.2 212.05,-22.467L212.05,-21.568C212.117,-20.901 212.25,-20.267 212.45,-19.667C212.817,-18.967 213.266,-18.318 213.8,-17.717C214.3,-17.117 214.933,-16.634 215.7,-16.267C216.1,-16.167 216.583,-16.101 217.15,-16.068L217.65,-16.068C218.25,-16.068 218.933,-16.134 219.7,-16.267C220.466,-16.634 221.083,-17.117 221.55,-17.717C222.117,-18.318 222.534,-18.967 222.8,-19.667C223.133,-20.434 223.3,-21.318 223.3,-22.318L223.3,-22.867ZM208.05,-26.417C208.483,-27.584 209.167,-28.601 210.1,-29.467C210.966,-30.301 212,-30.917 213.2,-31.318C214.167,-31.717 215.2,-31.934 216.3,-31.967C216.766,-32 217.167,-32.017 217.5,-32.017L219.3,-32.017C220.5,-31.95 221.567,-31.717 222.5,-31.318C223.567,-30.95 224.417,-30.45 225.05,-29.818C224.917,-30.017 225.183,-29.783 225.85,-29.117C226.483,-28.484 227,-27.584 227.4,-26.417C227.833,-25.283 227.983,-24.101 227.85,-22.867L227.85,-21.617C227.85,-20.217 227.683,-18.967 227.35,-17.867C226.917,-16.7 226.25,-15.7 225.35,-14.867C225.25,-14.767 225.15,-14.717 225.05,-14.717C224.183,-13.884 223.2,-13.267 222.1,-12.867C220.933,-12.401 219.583,-12.167 218.05,-12.167L217.15,-12.167C215.583,-12.167 214.167,-12.401 212.9,-12.867C211.8,-13.334 210.833,-14 210,-14.867C209.1,-15.7 208.417,-16.7 207.95,-17.867C207.617,-18.967 207.45,-20.217 207.45,-21.617L207.45,-22.617C207.483,-23.95 207.683,-25.217 208.05,-26.417M199.2,-24.517C198.933,-25.351 198.5,-26.033 197.9,-26.568C197.433,-27.2 196.833,-27.634 196.1,-27.867C195.5,-28.167 194.867,-28.318 194.2,-28.318L193.95,-28.318C193.25,-28.318 192.617,-28.167 192.05,-27.867C191.317,-27.634 190.7,-27.2 190.2,-26.568C189.7,-26.033 189.266,-25.351 188.9,-24.517C188.7,-23.884 188.516,-23.2 188.35,-22.467L188.35,-21.568C188.417,-20.901 188.55,-20.267 188.75,-19.667C189.083,-18.967 189.534,-18.318 190.1,-17.717C190.6,-17.117 191.216,-16.634 191.95,-16.267C192.383,-16.167 192.867,-16.101 193.4,-16.068L193.9,-16.068C194.534,-16.068 195.216,-16.134 195.95,-16.267C196.75,-16.634 197.383,-17.117 197.85,-17.717C198.383,-18.318 198.8,-18.967 199.1,-19.667C199.4,-20.434 199.55,-21.318 199.55,-22.318L199.55,-22.867C199.516,-23.601 199.4,-24.151 199.2,-24.517M168.8,-27.867L168.8,-23.267L170.8,-23.267C171.133,-23.267 171.583,-23.301 172.15,-23.367C172.65,-23.401 173.183,-23.533 173.75,-23.767C174.317,-23.967 174.716,-24.25 174.95,-24.617C175.15,-25.017 175.25,-25.401 175.25,-25.767C175.25,-26.101 175.167,-26.367 175,-26.568C174.8,-27.101 174.45,-27.417 173.95,-27.517C173.55,-27.684 173.083,-27.801 172.55,-27.867L168.8,-27.867ZM183.7,-22.617C183.766,-23.95 183.966,-25.217 184.3,-26.417C184.733,-27.584 185.433,-28.601 186.4,-29.467C187.233,-30.301 188.266,-30.917 189.5,-31.318C190.466,-31.717 191.483,-31.934 192.55,-31.967C193.016,-32 193.433,-32.017 193.8,-32.017L195.6,-32.017C196.8,-31.95 197.867,-31.717 198.8,-31.318C199.867,-30.95 200.716,-30.45 201.35,-29.818C201.216,-30.017 201.466,-29.783 202.1,-29.117C202.766,-28.484 203.3,-27.584 203.7,-26.417C204.133,-25.283 204.284,-24.101 204.15,-22.867L204.15,-21.617C204.15,-20.217 203.966,-18.967 203.6,-17.867C203.2,-16.7 202.55,-15.7 201.65,-14.867C201.55,-14.767 201.45,-14.717 201.35,-14.717C200.45,-13.884 199.45,-13.267 198.35,-12.867C197.183,-12.401 195.833,-12.167 194.3,-12.167L193.4,-12.167C191.833,-12.167 190.417,-12.401 189.15,-12.867C188.05,-13.334 187.083,-14 186.25,-14.867C185.35,-15.7 184.683,-16.7 184.25,-17.867C183.883,-18.967 183.7,-20.217 183.7,-21.617L183.7,-22.617ZM164.5,-31.818L171.3,-31.818C171.833,-31.818 172.317,-31.801 172.75,-31.767C173.317,-31.734 173.833,-31.684 174.3,-31.617C175.133,-31.417 175.867,-31.25 176.5,-31.117C177.667,-30.717 178.55,-30.084 179.15,-29.217C179.784,-28.45 180.1,-27.467 180.1,-26.267L180.1,-25.217C180.1,-24.017 179.683,-22.984 178.85,-22.117C178.216,-21.417 177.284,-20.834 176.05,-20.367L181.5,-12.617L176.15,-12.617L168.8,-23.267L168.6,-12.617L164.2,-12.617L164.5,-23.818C164.833,-26.45 166.167,-27.801 168.5,-27.867L164.5,-27.867L164.5,-31.818ZM248.3,-31.818L248.1,-27.867L241.7,-27.867L241.35,-12.617L236.85,-12.617L237.05,-27.867L230.75,-27.867L230.75,-31.818L248.3,-31.818Z" style="fill:rgb(51,51,51);"/>
        </g>
        <g transform="matrix(1,0,0,1,218.95,262.25)">
            <path d="M0,24C-0.567,23.866 -1.083,23.783 -1.55,23.75L-5.75,23.75L-5.75,27.95L-2.4,27.95C-1.934,27.917 -1.45,27.866 -0.95,27.8C-0.45,27.767 -0.05,27.667 0.25,27.5C0.617,27.366 0.883,27.167 1.05,26.9C1.25,26.733 1.417,26.483 1.55,26.15C1.683,25.85 1.6,25.45 1.3,24.95C1,24.45 0.566,24.134 0,24M1.6,13C2.2,13.1 2.733,13.316 3.2,13.65C3.667,13.95 4.083,14.3 4.45,14.7C4.783,15.066 5.033,15.5 5.2,16C5.3,16.434 5.35,16.884 5.35,17.35L5.35,18.25C5.35,19.05 5.15,19.767 4.75,20.4C4.55,20.866 4.2,21.25 3.7,21.55C3.833,21.55 4.083,21.634 4.45,21.8C4.75,21.967 5.05,22.283 5.35,22.75C5.55,22.884 5.716,23.217 5.85,23.75C6.017,24.15 6.1,24.6 6.1,25.1L6.1,26.1C6.1,26.467 6.017,26.934 5.85,27.5C5.75,27.9 5.517,28.4 5.15,29C4.95,29.333 4.466,29.733 3.7,30.2C2.933,30.667 2.216,30.967 1.55,31.1C0.883,31.233 0.4,31.316 0.1,31.35C-0.267,31.417 -0.583,31.45 -0.85,31.45C-1.25,31.517 -1.684,31.55 -2.15,31.55L-10.35,31.55L-10.05,21.35C-9.95,18.116 -8.483,16.45 -5.65,16.35L-5.65,19.9L-2.4,19.9C-1.567,19.9 -1.034,19.833 -0.8,19.7C-0.567,19.634 -0.45,19.583 -0.45,19.55L-0.05,19.3L0.3,18.95C0.3,18.884 0.367,18.684 0.5,18.35C0.6,17.95 0.5,17.6 0.2,17.3C-0.133,16.934 -0.4,16.717 -0.6,16.65C-0.767,16.517 -0.917,16.434 -1.05,16.4C-1.184,16.333 -1.383,16.3 -1.65,16.3L-10.1,16.3L-10.05,12.35L-2.15,12.35C-1.75,12.35 -1.35,12.384 -0.95,12.45C-0.05,12.45 0.8,12.634 1.6,13M-42.05,-6.5L-42.05,-5.45C-42.05,-4.083 -42.083,-2.667 -42.15,-1.2L-42.15,0.15C-42.15,1.55 -42.184,2.833 -42.25,4L-42.25,5.05C-42.25,6.55 -42.284,7.983 -42.35,9.35L-42.35,15.3C-42.284,15.733 -42.383,16.116 -42.65,16.45C-43.05,16.816 -43.467,17 -43.9,17C-44.434,17 -44.883,16.866 -45.25,16.6C-45.583,16.267 -45.784,15.884 -45.85,15.45L-45.85,9.35C-45.784,7.983 -45.75,6.55 -45.75,5.05L-45.75,4C-45.684,2.833 -45.65,1.55 -45.65,0.15L-45.65,-1.2C-45.617,-2.667 -45.6,-4.083 -45.6,-5.45L-45.6,-6.5C-45.6,-6.866 -45.483,-7.217 -45.25,-7.55C-44.75,-7.85 -44.233,-8 -43.7,-8C-43.2,-8 -42.833,-7.85 -42.6,-7.55C-42.233,-7.217 -42.05,-6.866 -42.05,-6.5M-51.65,-3.7C-51.383,-4.134 -50.967,-4.35 -50.4,-4.35C-49.934,-4.35 -49.483,-4.134 -49.05,-3.7C-48.784,-3.5 -48.65,-3.167 -48.65,-2.7C-48.65,-2.467 -48.667,-2.233 -48.7,-2C-48.7,-0.2 -48.75,1.8 -48.85,4L-48.85,20.5C-48.85,20.9 -49.083,21.267 -49.55,21.6C-49.917,21.866 -50.333,22 -50.8,22C-51.267,22 -51.684,21.866 -52.05,21.6C-52.517,21.267 -52.75,20.9 -52.75,20.5L-52.75,20.4C-52.75,19.667 -52.7,18.967 -52.6,18.3L-52.6,14.7C-52.6,14.533 -52.583,14.316 -52.55,14.05L-52.55,9.35C-52.483,8.083 -52.45,6.65 -52.45,5.05L-52.45,4C-52.35,1.8 -52.3,-0.2 -52.3,-2C-52.267,-2.233 -52.25,-2.467 -52.25,-2.7C-52.25,-3.167 -52.05,-3.5 -51.65,-3.7M81.399,19.9L89.35,19.9L89.3,23.75L81.25,23.75L81.25,27.95L91.25,27.95L91.1,31.55L76.649,31.55L76.899,12.35L90.95,12.35L90.85,16.3L81.399,16.3L81.399,19.9ZM62.25,12.55C63.116,12.35 63.967,12.217 64.8,12.15L66.399,12.15C66.8,12.15 67.233,12.184 67.7,12.25C67.3,12.184 67.649,12.217 68.75,12.35C70.05,12.417 70.983,12.583 71.55,12.85L71.55,16.65L71.3,16.65L70.6,16.45C69.767,16.35 68.967,16.233 68.2,16.1C67.6,16.033 67,15.95 66.399,15.85L66.25,15.85C65.283,15.85 64.434,16 63.7,16.3C62.666,16.533 61.783,16.967 61.05,17.6C60.35,18.134 59.8,18.866 59.399,19.8C59.1,20.533 58.883,21.45 58.75,22.55C58.883,24.25 59.533,25.55 60.7,26.45C61.733,27.45 63.283,28 65.35,28.1L66.25,28.1C66.816,28.066 67.233,28.017 67.5,27.95L67.5,24.65L62.95,24.65L62.95,23.75C62.95,23.283 62.983,22.95 63.05,22.75L63.05,21L72.25,21L71.95,30.95C71.684,31.184 71.333,31.3 70.899,31.3C70.366,31.4 69.816,31.517 69.25,31.65C68.684,31.717 68.083,31.783 67.45,31.85C66.783,31.95 66.184,32 65.649,32L63.55,32C62.25,31.833 61.066,31.6 60,31.3C58.7,30.9 57.6,30.283 56.7,29.45C55.9,28.55 55.267,27.6 54.8,26.6C54.3,25.4 54.05,24.15 54.05,22.85L54.05,21.95C54.117,20.983 54.3,20.116 54.6,19.35C54.8,18.483 55.15,17.634 55.65,16.8C56.116,16.167 56.666,15.55 57.3,14.95C57.967,14.35 58.717,13.833 59.55,13.4C60.45,13.033 61.35,12.75 62.25,12.55M24.35,30.8C23.583,31.167 22.8,31.45 22,31.65C21.367,31.783 20.633,31.9 19.8,32L17.65,32C16.716,31.9 15.966,31.783 15.4,31.65C14.566,31.45 13.833,31.15 13.2,30.75C12.566,30.517 12.033,30.083 11.6,29.45C11.233,29.05 10.9,28.55 10.6,27.95C10.333,27.35 10.133,26.8 10,26.3C9.966,25.8 9.95,25.4 9.95,25.1L9.95,23.75L10.15,12.35L14.8,12.35L14.5,23.1L14.5,23.4C14.6,24.366 14.816,25.15 15.15,25.75C15.517,26.616 16.017,27.267 16.65,27.7C17.316,27.934 18.033,28.066 18.8,28.1L19.6,28.1C20.1,28 20.583,27.866 21.05,27.7C21.783,27.267 22.333,26.616 22.7,25.75C23,25.15 23.167,24.366 23.2,23.4L23.45,12.35L28.05,12.35L27.75,23.75L27.75,24.65C27.75,25.25 27.716,25.8 27.65,26.3C27.55,26.8 27.383,27.35 27.15,27.95C26.917,28.55 26.566,29.1 26.1,29.6C25.633,30.134 25.05,30.533 24.35,30.8M42.3,16.65C41.767,16.483 41.15,16.366 40.45,16.3L37.2,16.3L37.15,27.95L38.8,27.95C39.133,27.95 39.517,27.934 39.95,27.9C41.117,27.634 42.066,27.35 42.8,27.05C43.9,26.55 44.733,25.816 45.3,24.85C45.8,24.017 46.083,22.983 46.15,21.75L46.15,21.4C46.15,21.333 46.167,21.267 46.2,21.2L46.2,21.1C46.167,20.833 46.117,20.583 46.05,20.35C45.85,19.816 45.6,19.35 45.3,18.95C44.9,18.35 44.483,17.9 44.05,17.6C43.517,17.333 42.933,17.017 42.3,16.65M43.2,12.75C43.633,12.816 44.05,12.917 44.45,13.05C45.517,13.45 46.4,13.884 47.1,14.35C48.033,14.816 48.75,15.467 49.25,16.3C49.816,17 50.233,17.783 50.5,18.65C50.833,19.316 50.933,20.1 50.8,21L50.8,22.45C50.8,23.417 50.683,24.35 50.45,25.25C50.216,26.05 49.867,26.8 49.4,27.5C48.933,28.267 48.283,28.917 47.45,29.45C46.617,29.95 45.75,30.384 44.85,30.75C43.85,30.95 42.85,31.15 41.85,31.35C41.25,31.417 40.617,31.483 39.95,31.55L32.55,31.55L32.8,12.35L39,12.35C39.433,12.35 39.917,12.384 40.45,12.45C40.917,12.45 41.4,12.483 41.9,12.55C42.333,12.616 42.767,12.684 43.2,12.75M-73.1,9.15C-73.034,8.95 -73,8.816 -73,8.75L-73,7.9C-73,7.533 -72.817,7.167 -72.45,6.8C-72.117,6.533 -71.684,6.4 -71.15,6.4C-70.717,6.4 -70.267,6.533 -69.8,6.8C-69.534,7.167 -69.4,7.533 -69.4,7.9L-69.4,15.45C-69.4,15.884 -69.6,16.267 -70,16.6C-70.467,16.866 -70.917,17 -71.35,17C-71.883,17 -72.3,16.816 -72.6,16.45C-73,16.116 -73.167,15.733 -73.1,15.3L-73.1,9.15ZM-58.85,0C-58.383,-0.333 -57.9,-0.5 -57.4,-0.5C-56.934,-0.5 -56.534,-0.333 -56.2,0C-55.8,0.2 -55.6,0.55 -55.6,1.05L-55.75,15.45C-55.75,15.884 -55.95,16.25 -56.35,16.55C-56.583,16.85 -56.967,17 -57.5,17C-57.967,17 -58.434,16.866 -58.9,16.6C-59.267,16.267 -59.45,15.884 -59.45,15.45L-59.2,1.05C-59.2,0.65 -59.083,0.3 -58.85,0M-64.45,3.2C-63.817,3.2 -63.367,3.333 -63.1,3.6C-62.7,3.866 -62.5,4.233 -62.5,4.7L-62.5,6.05C-62.5,7.083 -62.55,8.184 -62.65,9.35L-62.65,20.5C-62.65,20.9 -62.833,21.267 -63.2,21.6C-63.6,21.866 -64.017,22 -64.45,22C-64.95,22 -65.35,21.866 -65.65,21.6C-65.817,21.5 -66.067,21.25 -66.4,20.85L-66.4,20.3C-66.434,18.233 -66.434,16.434 -66.4,14.9L-66.4,14.05L-66.2,5.95L-66.2,4.7C-66.2,4.233 -66.017,3.866 -65.65,3.6C-65.25,3.333 -64.85,3.2 -64.45,3.2M105.3,31.55L100.75,31.55L100.95,16.3L94.45,16.3L94.45,15.15C94.45,14.85 94.483,14.5 94.55,14.1L94.55,12.35L112.05,12.35L112.05,16.3L105.399,16.3L105.3,31.55Z" style="fill:rgb(86,171,95);"/>
        </g>
    </g>
</svg>
